<svg viewBox="0 0 64 66" xmlns="http://www.w3.org/2000/svg" xmlns:xlink="http://www.w3.org/1999/xlink"><style>:root&gt;svg{display:none}:root&gt;svg:target{display:block}</style><svg fill="none" viewBox="0 0 61 48" id="svg--arrow" xmlns="http://www.w3.org/2000/svg"><path d="M41.843 8.99H15.39V.946L.862 13.476 15.39 25.003v-7.348h26.453c4.606 0 10.353 3.844 10.353 10.353 0 6.51-5.747 10.353-10.353 10.353H11.676v8.666h30.167c10.487 0 19.019-8.531 19.019-19.019 0-10.487-8.532-19.019-19.02-19.019l.001.001z" fill="#00FFA3"/></svg><svg fill="none" viewBox="0 0 56 64" id="svg--check" xmlns="http://www.w3.org/2000/svg"><path fill-rule="evenodd" clip-rule="evenodd" d="M29.902 56.846c-.725.328-1.368.593-1.902.8a38.347 38.347 0 01-1.902-.8c-2.307-1.044-5.363-2.685-8.391-5.064C11.725 47.082 6 39.673 6 28V13.761c1.902-.447 3.406-1.413 4.198-1.922l.061-.04c.496-.317.93-.608 1.347-.886.85-.568 1.624-1.086 2.69-1.686C17.038 7.681 21.133 6 28 6c6.866 0 10.96 1.681 13.705 3.227 1.065.6 1.84 1.118 2.689 1.686.417.278.851.569 1.347.887l.06.039c.793.509 2.297 1.475 4.199 1.922V28c0 11.673-5.724 19.082-11.707 23.782-3.028 2.38-6.084 4.02-8.391 5.064zM0 28V8h4c1.158 0 2.4-.828 4.083-1.951C11.632 3.68 17.148 0 28 0c10.852 0 16.368 3.68 19.917 6.049C49.601 7.172 50.842 8 52 8h4v20c0 28-28 36-28 36S0 56 0 28zm41.879-10.121L24 35.757 18.542 30.3 14.3 34.542l7.579 7.58L24 44.241l2.121-2.12 20-20-4.242-4.243v.001z" fill="#00FFA3"/></svg><svg fill="none" viewBox="0 0 62 66" id="svg--dinamic" xmlns="http://www.w3.org/2000/svg"><g clip-path="url(#cclip0_1330_200)" fill="#00FFA3"><path opacity=".2" d="M28.256 9.226L0 37.366h10.48L2.426 58.713l28.931-28.14H20.873l7.383-21.35v.002z"/><path opacity=".5" d="M42.799 5.64l-32.11 31.81H22.6l-9.154 24.133L46.323 29.77H34.41l8.389-24.132z"/><path d="M57.984.619L21.38 37.322h13.576L24.52 65.171 62 28.464H48.42L57.984.618z"/></g><defs><clipPath id="cclip0_1330_200"><path fill="#fff" transform="translate(0 .5)" d="M0 0h62v65H0z"/></clipPath></defs></svg><svg fill="none" viewBox="0 0 64 66" id="svg--ecology" xmlns="http://www.w3.org/2000/svg"><g clip-path="url(#dclip0_1330_204)" fill="#00FFA3"><path d="M42.934 2.521c9.586 3.742 17.236 11.57 19.945 21.481 1.272 4.654 1.43 9.454.637 14.067a45.36 45.36 0 01-.313 1.55c-.11.488-.222.976-.335 1.463a31.695 31.695 0 01-3.87 8.722L53.63 36.696l4.735-.019a27.113 27.113 0 00-.537-10.872C55.647 17.357 49.153 10.673 41.014 7.5l-.558-.218a1.334 1.334 0 01-.758-1.728l.972-2.484a1.336 1.336 0 011.73-.756l.535.208h-.001zm6.788 50.098a1.337 1.337 0 011.877.208l1.669 2.083c.46.576.367 1.415-.209 1.875l-.448.357c-8.037 6.417-18.65 9.12-28.602 6.506-4.672-1.227-8.915-3.49-12.52-6.483a45.22 45.22 0 01-1.187-1.045 248.31 248.31 0 01-1.101-1.022 31.725 31.725 0 01-5.63-7.707l13.4 3.041-1.698 2.974a27.21 27.21 0 009.697 4.973c8.418 2.339 17.461.064 24.284-5.386l.468-.374zM5.676 37.371l.09.592a1.334 1.334 0 01-1.119 1.52l-2.64.4c-.73.111-1.41-.39-1.522-1.117L.4 38.2c-1.548-10.16 1.415-20.688 8.66-27.987 3.399-3.426 7.483-5.964 11.88-7.584a44.74 44.74 0 011.501-.504c.472-.148 1.437-.442 1.437-.442a31.804 31.804 0 019.5-1.015L24.04 10.734l-1.73-2.955a27.196 27.196 0 00-9.162 5.9c-6.237 6.11-8.786 15.067-7.47 23.692h-.002zm13.429 6.139c-2.44-4.925-.488-10.588 2.441-13.543 3.66-3.693 7.676-5.282 10.372-8.002 2.44-2.463 3.66-5.54 3.66-10.465 3.051 3.283 8.202 17.206 7.322 24.007-1.83 14.158-15.863 12.927-21.354 10.465 1.424-1.026 6.154-2.706 9.762-7.387 4.09-5.306 4.263-10.048 4.807-12.062-.434 1.26-2.738 6.897-6.027 10.215-3.67 3.702-7.525 5.335-10.983 6.772z"/></g><defs><clipPath id="dclip0_1330_204"><path fill="#fff" transform="translate(0 .5)" d="M0 0h64v65H0z"/></clipPath></defs></svg><svg fill="none" viewBox="0 0 35 35" id="svg--faces" xmlns="http://www.w3.org/2000/svg"><path d="M35 2.533v29.934c-.014.022-.034.036-.04.058C34.733 34.003 33.512 35 32.018 35c-9.682-.014-19.363-.007-29.044-.014-.294 0-.6-.022-.88-.1C.778 34.518 0 33.406 0 31.914V3.128c0-.71.143-1.377.56-1.951C1.186.323 2.032 0 3.035 0c8.883.007 17.766.007 26.656.007.798 0 1.596.007 2.395 0a2.808 2.808 0 011.924.696c.552.48.812 1.134.989 1.83zm-20.318 26.34h4.742v-12.04h2.313c.648 0 .648 0 .798-.668.218-.975.43-1.944.662-2.963h-3.828c.069-.847.103-1.657.198-2.454.048-.401.3-.724.676-.89.648-.28 1.323-.365 1.999-.114.436.158.846.387 1.296.603.28-1.127.566-2.246.846-3.38-.505-.158-.969-.287-1.42-.445-1.684-.581-3.383-.538-5.075-.072-1.372.373-2.32 1.278-2.832 2.655-.334.904-.354 1.866-.361 2.82v1.27h-2.197v3.63h2.19c-.007 4.04-.007 8.03-.007 12.047z" fill="url(#epaint0_linear_119_21957)"/><defs><linearGradient id="epaint0_linear_119_21957" x1="17.5" y1="0" x2="17.5" y2="35" gradientUnits="userSpaceOnUse"><stop stop-color="#00D8A4"/><stop offset="1" stop-color="#009470"/></linearGradient></defs></svg><svg viewBox="0 0 35 35" id="svg--inst" xmlns="http://www.w3.org/2000/svg"><path d="M32.88 35H2.12c-.664-.191-1.28-.472-1.655-1.08-.192-.321-.315-.69-.465-1.04V2.12C.164 1.571.349 1.018.82.683c.397-.28.862-.458 1.3-.684h30.76c.664.185 1.28.472 1.655 1.08.198.321.315.69.465 1.04v30.76c-.191.664-.472 1.28-1.08 1.655-.321.192-.69.315-1.04.465zM17.528 7.396v.124c-1.449 0-2.891-.028-4.34.006-1.163.028-2.284.301-3.268.964-1.64 1.108-2.345 2.741-2.386 4.642-.061 2.912-.034 5.83-.007 8.743.014 1.142.308 2.235.957 3.2 1.108 1.64 2.742 2.344 4.642 2.385 2.912.061 5.831.055 8.743 0 1.613-.027 3.063-.56 4.177-1.805.984-1.1 1.388-2.427 1.415-3.862.055-2.393.061-4.785.061-7.178 0-.704-.054-1.415-.123-2.112-.273-2.714-2.214-4.683-4.935-4.908-1.627-.13-3.281-.137-4.936-.199z" fill="url(#fpaint0_linear_119_21946)"/><path d="M25.771 17.493c-.04 1.524-.047 3.056-.136 4.573-.123 2.099-1.456 3.5-3.555 3.555-3.035.082-6.077.082-9.12 0-2.146-.055-3.52-1.429-3.581-3.589-.082-3.049-.055-6.104 0-9.153.027-1.32.629-2.413 1.853-3.063.69-.362 1.449-.499 2.214-.499 2.871 0 5.743-.034 8.607.055 2.126.068 3.418 1.442 3.582 3.568.02.226.048.452.048.684.006 1.285 0 2.577 0 3.862.034 0 .061.007.088.007zm-3.117-.007a5.142 5.142 0 00-5.154-5.14 5.15 5.15 0 00-5.161 5.168 5.152 5.152 0 005.154 5.147 5.155 5.155 0 005.161-5.175zm1.409-5.366a1.205 1.205 0 00-1.197-1.19c-.677 0-1.21.54-1.203 1.217a1.185 1.185 0 001.23 1.183 1.186 1.186 0 001.17-1.21z" fill="url(#fpaint1_linear_119_21946)"/><path d="M17.5 14.15a3.352 3.352 0 013.35 3.336 3.346 3.346 0 01-3.364 3.357 3.358 3.358 0 01-3.336-3.357 3.357 3.357 0 013.35-3.336z" fill="url(#fpaint2_linear_119_21946)"/><defs><linearGradient id="fpaint0_linear_119_21946" x1="17.5" y1="0" x2="17.5" y2="35" gradientUnits="userSpaceOnUse"><stop stop-color="#00D8A4"/><stop offset="1" stop-color="#009470"/></linearGradient><linearGradient id="fpaint1_linear_119_21946" x1="17.549" y1="9.311" x2="17.549" y2="25.683" gradientUnits="userSpaceOnUse"><stop stop-color="#00D8A4"/><stop offset="1" stop-color="#009470"/></linearGradient><linearGradient id="fpaint2_linear_119_21946" x1="17.5" y1="14.15" x2="17.5" y2="20.843" gradientUnits="userSpaceOnUse"><stop stop-color="#00D8A4"/><stop offset="1" stop-color="#009470"/></linearGradient></defs></svg><svg fill="none" viewBox="0 0 64 64" id="svg--launch" xmlns="http://www.w3.org/2000/svg"><g clip-path="url(#gclip0_1330_195)" fill="#00FFA3"><path d="M36.855 55.29c8.265-3.135 12.54-11.4 10.83-20.52 8.835-8.835 14.82-21.09 15.105-33.345C62.79.57 62.22 0 61.365 0 49.11.285 36.855 6.27 28.02 14.82c-8.835-1.425-17.385 2.565-20.52 10.83 3.705-1.425 7.98-1.71 12.255-.57-.855 1.425-1.71 2.85-2.28 4.275-.285.57-.285 1.14.285 1.71l14.25 14.25c.285.285.855.285 1.425 0 1.425-.57 2.85-1.425 3.99-2.28 1.14 4.275.855 8.55-.57 12.255zM45.5 16.48c-2.28-2.28-2.28-5.7 0-7.98 2.28-2.28 5.7-2.28 7.98 0 2.28 2.28 2.28 5.7 0 7.98-2.28 2.28-5.7 2.28-7.98 0z"/><path fill-rule="evenodd" clip-rule="evenodd" d="M12.869 33.954a1.25 1.25 0 00-1.768 0L7.565 37.49a1.25 1.25 0 101.767 1.768l3.537-3.535a1.25 1.25 0 000-1.768zM30.546 51.63a1.25 1.25 0 00-1.768 0l-3.535 3.536a1.25 1.25 0 101.768 1.768l3.535-3.536a1.25 1.25 0 000-1.768zM19.94 53.4a1.25 1.25 0 011.767 1.768l-8.467 8.466a1.25 1.25 0 11-1.768-1.768L19.94 53.4zm-8.232 0a1.25 1.25 0 00-1.768 0l-8.468 8.466a1.25 1.25 0 101.768 1.768l8.467-8.466a1.25 1.25 0 000-1.768h.001zM9.332 42.792A1.25 1.25 0 1111.1 44.56l-8.466 8.468A1.25 1.25 0 11.866 51.26l8.466-8.468z"/></g><defs><clipPath id="gclip0_1330_195"><path fill="#fff" transform="translate(.5)" d="M0 0h63v64H0z"/></clipPath></defs></svg><svg fill="none" viewBox="0 0 64 66" id="svg--track" xmlns="http://www.w3.org/2000/svg"><g clip-path="url(#hclip0_1330_207)" fill="#00FFA3"><path opacity=".6" d="M64 17.174V24.8a16.486 16.486 0 01-11.288 15.638l-7.737 2.55c-2.138.712-3.6 2.862-3.6 5.112 0 9.112-7.425 16.538-16.538 16.538h-4.55c-4.162 0-7.987-1.575-10.912-4.125C5.925 57.475 3.75 53.05 3.75 48.1V36.387H15v11.712a5.282 5.282 0 005.288 5.288h4.55a5.28 5.28 0 005.287-5.288c0-7.087 4.538-13.513 11.288-15.762l7.737-2.55a5.284 5.284 0 003.6-4.988v-7.625a5.282 5.282 0 00-5.288-5.287H20.288A5.28 5.28 0 0015 17.174v11.713H3.75V17.174c0-4.95 2.175-9.375 5.625-12.412C12.3 2.212 16.125.637 20.288.637h27.174C56.575.637 64 8.062 64 17.174z"/><path d="M47.462 4.387H20.288c-4.613 0-8.663 2.475-10.913 6.15-1.2 1.95-1.875 4.2-1.875 6.637v11.713h3.75V17.174c0-4.987 4.05-9.037 9.038-9.037h27.174c4.988 0 9.038 4.05 9.038 9.037V24.8a9.02 9.02 0 01-6.188 8.55l-7.7 2.513c-5.212 1.762-8.737 6.762-8.737 12.237 0 4.987-4.05 9.038-9.038 9.038h-4.55c-4.987 0-9.037-4.05-9.037-9.038V36.387H7.5v11.712c0 2.438.675 4.688 1.875 6.638 2.25 3.675 6.3 6.15 10.913 6.15h4.55c7.05 0 12.787-5.738 12.787-12.788 0-3.862 2.475-7.437 6.188-8.675l7.7-2.512c5.212-1.763 8.737-6.638 8.737-12.113v-7.625c0-7.05-5.738-12.787-12.788-12.787z"/><path d="M0 34.512h18.75v3.75H0v-3.75zm0-7.5h18.75v3.75H0v-3.75z"/></g><defs><clipPath id="hclip0_1330_207"><path fill="#fff" transform="translate(0 .5)" d="M0 0h64v65H0z"/></clipPath></defs></svg><svg fill="none" viewBox="0 0 35 35" id="svg--twitter" xmlns="http://www.w3.org/2000/svg"><path d="M0 32.88V2.12C.164 1.571.349 1.018.82.683c.397-.28.862-.458 1.3-.684h30.76c.664.185 1.28.472 1.655 1.08.198.321.315.69.465 1.04v30.76c-.191.664-.472 1.28-1.08 1.655-.321.198-.69.315-1.04.465H2.12c-.664-.191-1.28-.472-1.655-1.08-.192-.321-.315-.69-.465-1.04zm13.836-10.738c-1.764 1.319-3.671 1.838-5.872 1.66.184.117.28.185.383.247 2.604 1.49 5.393 1.88 8.312 1.265 5.565-1.176 8.757-6.235 8.825-10.972.007-.5.117-.834.534-1.135.56-.41 1.011-.957 1.428-1.593-.403.13-.731.253-1.066.349-.335.089-.684.15-1.025.226.717-.588 1.264-1.258 1.544-2.085-.717.26-1.435.512-2.146.772-.24.089-.403.027-.602-.144-1.196-1.052-2.584-1.333-4.074-.786-1.504.554-2.379 1.682-2.584 3.275-.061.45-.007.916-.007 1.394-3.315-.239-6.043-1.64-8.21-4.183-.533.936-.656 1.893-.444 2.898.219.998.786 1.777 1.593 2.406-.02.034-.041.062-.062.096-.547-.157-1.1-.314-1.66-.472.02.916.293 1.737.867 2.461.568.725 1.32 1.183 2.208 1.429-.007.034-.013.061-.013.096h-1.662c.67 1.702 1.88 2.611 3.733 2.796z" fill="url(#ipaint0_linear_119_21953)"/><defs><linearGradient id="ipaint0_linear_119_21953" x1="17.5" y1="0" x2="17.5" y2="35" gradientUnits="userSpaceOnUse"><stop stop-color="#00D8A4"/><stop offset="1" stop-color="#009470"/></linearGradient></defs></svg><svg viewBox="0 0 35 35" id="svg--youtube" xmlns="http://www.w3.org/2000/svg"><path d="M0 32.88V2.12C.164 1.571.349 1.018.82.683c.397-.28.862-.458 1.3-.684h30.76c.664.185 1.28.472 1.655 1.08.198.321.315.69.465 1.04v30.76c-.191.664-.472 1.28-1.08 1.655-.321.198-.69.315-1.04.465H2.12c-.664-.191-1.28-.472-1.655-1.08-.192-.321-.315-.69-.465-1.04zM17.056 9.763c0 .027 0 .054-.007.082-.123 0-.253-.007-.376 0-2.386.11-4.778.191-7.164.355-1.381.096-2.31.944-2.543 2.31-.205 1.183-.308 2.393-.37 3.596-.102 2.168-.06 4.328.377 6.46.246 1.217 1.032 1.983 2.262 2.167 1.156.171 2.331.26 3.5.315 4.102.178 8.197.178 12.291-.171 1.97-.17 2.851-.998 3.118-2.933a30.32 30.32 0 00.246-5.83c-.069-1.245-.185-2.503-.397-3.726-.198-1.142-.977-1.846-2.119-2.106a5.431 5.431 0 00-1.046-.15 953.245 953.245 0 00-7.772-.37z" fill="url(#jpaint0_linear_119_21960)"/><path d="M15.347 14.232c1.9 1.094 3.753 2.167 5.667 3.268-1.914 1.1-3.774 2.174-5.667 3.267v-6.535z" fill="url(#jpaint1_linear_119_21960)"/><defs><linearGradient id="jpaint0_linear_119_21960" x1="17.5" y1="0" x2="17.5" y2="35" gradientUnits="userSpaceOnUse"><stop stop-color="#00D8A4"/><stop offset="1" stop-color="#009470"/></linearGradient><linearGradient id="jpaint1_linear_119_21960" x1="18.18" y1="14.232" x2="18.18" y2="20.767" gradientUnits="userSpaceOnUse"><stop stop-color="#00D8A4"/><stop offset="1" stop-color="#009470"/></linearGradient></defs></svg></svg>