<svg width="56" height="64" fill="none" xmlns="http://www.w3.org/2000/svg"><path fill-rule="evenodd" clip-rule="evenodd" d="M29.902 56.846c-.725.328-1.368.593-1.902.8a38.347 38.347 0 01-1.902-.8c-2.307-1.044-5.363-2.685-8.391-5.064C11.725 47.082 6 39.673 6 28V13.761c1.902-.447 3.406-1.413 4.198-1.922l.061-.04c.496-.317.93-.608 1.347-.886.85-.568 1.624-1.086 2.69-1.686C17.038 7.681 21.133 6 28 6c6.866 0 10.96 1.681 13.705 3.227 1.065.6 1.84 1.118 2.689 1.686.417.278.851.569 1.347.887l.06.039c.793.509 2.297 1.475 4.199 1.922V28c0 11.673-5.724 19.082-11.707 23.782-3.028 2.38-6.084 4.02-8.391 5.064zM0 28V8h4c1.158 0 2.4-.828 4.083-1.951C11.632 3.68 17.148 0 28 0c10.852 0 16.368 3.68 19.917 6.049C49.601 7.172 50.842 8 52 8h4v20c0 28-28 36-28 36S0 56 0 28zm41.879-10.121L24 35.757 18.542 30.3 14.3 34.542l7.579 7.58L24 44.241l2.121-2.12 20-20-4.242-4.243v.001z" fill="#00FFA3"/></svg>