<svg width="64" height="66" fill="none" xmlns="http://www.w3.org/2000/svg"><g clip-path="url(#clip0_1330_204)" fill="#00FFA3"><path d="M42.934 2.521c9.586 3.742 17.236 11.57 19.945 21.481 1.272 4.654 1.43 9.454.637 14.067a45.36 45.36 0 01-.313 1.55c-.11.488-.222.976-.335 1.463a31.695 31.695 0 01-3.87 8.722L53.63 36.696l4.735-.019a27.113 27.113 0 00-.537-10.872C55.647 17.357 49.153 10.673 41.014 7.5l-.558-.218a1.334 1.334 0 01-.758-1.728l.972-2.484a1.336 1.336 0 011.73-.756l.535.208h-.001zm6.788 50.098a1.337 1.337 0 011.877.208l1.669 2.083c.46.576.367 1.415-.209 1.875l-.448.357c-8.037 6.417-18.65 9.12-28.602 6.506-4.672-1.227-8.915-3.49-12.52-6.483a45.22 45.22 0 01-1.187-1.045 248.31 248.31 0 01-1.101-1.022 31.725 31.725 0 01-5.63-7.707l13.4 3.041-1.698 2.974a27.21 27.21 0 009.697 4.973c8.418 2.339 17.461.064 24.284-5.386l.468-.374zM5.676 37.371l.09.592a1.334 1.334 0 01-1.119 1.52l-2.64.4c-.73.111-1.41-.39-1.522-1.117L.4 38.2c-1.548-10.16 1.415-20.688 8.66-27.987 3.399-3.426 7.483-5.964 11.88-7.584a44.74 44.74 0 011.501-.504c.472-.148 1.437-.442 1.437-.442a31.804 31.804 0 019.5-1.015L24.04 10.734l-1.73-2.955a27.196 27.196 0 00-9.162 5.9c-6.237 6.11-8.786 15.067-7.47 23.692h-.002zm13.429 6.139c-2.44-4.925-.488-10.588 2.441-13.543 3.66-3.693 7.676-5.282 10.372-8.002 2.44-2.463 3.66-5.54 3.66-10.465 3.051 3.283 8.202 17.206 7.322 24.007-1.83 14.158-15.863 12.927-21.354 10.465 1.424-1.026 6.154-2.706 9.762-7.387 4.09-5.306 4.263-10.048 4.807-12.062-.434 1.26-2.738 6.897-6.027 10.215-3.67 3.702-7.525 5.335-10.983 6.772z"/></g><defs><clipPath id="clip0_1330_204"><path fill="#fff" transform="translate(0 .5)" d="M0 0h64v65H0z"/></clipPath></defs></svg>