<svg width="35" height="35" xmlns="http://www.w3.org/2000/svg"><path d="M35 2.533v29.934c-.014.022-.034.036-.04.058C34.733 34.003 33.512 35 32.018 35c-9.682-.014-19.363-.007-29.044-.014-.294 0-.6-.022-.88-.1C.778 34.518 0 33.406 0 31.914V3.128c0-.71.143-1.377.56-1.951C1.186.323 2.032 0 3.035 0c8.883.007 17.766.007 26.656.007.798 0 1.596.007 2.395 0a2.808 2.808 0 011.924.696c.552.48.812 1.134.989 1.83zm-20.318 26.34h4.742v-12.04h2.313c.648 0 .648 0 .798-.668.218-.975.43-1.944.662-2.963h-3.828c.069-.847.103-1.657.198-2.454.048-.401.3-.724.676-.89.648-.28 1.323-.365 1.999-.114.436.158.846.387 1.296.603.28-1.127.566-2.246.846-3.38-.505-.158-.969-.287-1.42-.445-1.684-.581-3.383-.538-5.075-.072-1.372.373-2.32 1.278-2.832 2.655-.334.904-.354 1.866-.361 2.82v1.27h-2.197v3.63h2.19c-.007 4.04-.007 8.03-.007 12.047z"/></svg>