<svg width="35" height="35" xmlns="http://www.w3.org/2000/svg"><path d="M32.88 35H2.12c-.664-.191-1.28-.472-1.655-1.08-.192-.321-.315-.69-.465-1.04V2.12C.164 1.571.349 1.018.82.683c.397-.28.862-.458 1.3-.684h30.76c.664.185 1.28.472 1.655 1.08.198.321.315.69.465 1.04v30.76c-.191.664-.472 1.28-1.08 1.655-.321.192-.69.315-1.04.465zM17.528 7.396v.124c-1.449 0-2.891-.028-4.34.006-1.163.028-2.284.301-3.268.964-1.64 1.108-2.345 2.741-2.386 4.642-.061 2.912-.034 5.83-.007 8.743.014 1.142.308 2.235.957 3.2 1.108 1.64 2.742 2.344 4.642 2.385 2.912.061 5.831.055 8.743 0 1.613-.027 3.063-.56 4.177-1.805.984-1.1 1.388-2.427 1.415-3.862.055-2.393.061-4.785.061-7.178 0-.704-.054-1.415-.123-2.112-.273-2.714-2.214-4.683-4.935-4.908-1.627-.13-3.281-.137-4.936-.199z"/><path d="M25.771 17.493c-.04 1.524-.047 3.056-.136 4.573-.123 2.099-1.456 3.5-3.555 3.555-3.035.082-6.077.082-9.12 0-2.146-.055-3.52-1.429-3.581-3.589-.082-3.049-.055-6.104 0-9.153.027-1.32.629-2.413 1.853-3.063.69-.362 1.449-.499 2.214-.499 2.871 0 5.743-.034 8.607.055 2.126.068 3.418 1.442 3.582 3.568.02.226.048.452.048.684.006 1.285 0 2.577 0 3.862.034 0 .061.007.088.007zm-3.117-.007a5.142 5.142 0 00-5.154-5.14 5.15 5.15 0 00-5.161 5.168 5.152 5.152 0 005.154 5.147 5.155 5.155 0 005.161-5.175zm1.409-5.366a1.205 1.205 0 00-1.197-1.19c-.677 0-1.21.54-1.203 1.217a1.185 1.185 0 001.23 1.183 1.186 1.186 0 001.17-1.21z"/><path d="M17.5 14.15a3.352 3.352 0 013.35 3.336 3.346 3.346 0 01-3.364 3.357 3.358 3.358 0 01-3.336-3.357 3.357 3.357 0 013.35-3.336z"/></svg>