<svg width="64" height="64" fill="none" xmlns="http://www.w3.org/2000/svg"><g clip-path="url(#clip0_1330_195)" fill="#00FFA3"><path d="M36.855 55.29c8.265-3.135 12.54-11.4 10.83-20.52 8.835-8.835 14.82-21.09 15.105-33.345C62.79.57 62.22 0 61.365 0 49.11.285 36.855 6.27 28.02 14.82c-8.835-1.425-17.385 2.565-20.52 10.83 3.705-1.425 7.98-1.71 12.255-.57-.855 1.425-1.71 2.85-2.28 4.275-.285.57-.285 1.14.285 1.71l14.25 14.25c.285.285.855.285 1.425 0 1.425-.57 2.85-1.425 3.99-2.28 1.14 4.275.855 8.55-.57 12.255zM45.5 16.48c-2.28-2.28-2.28-5.7 0-7.98 2.28-2.28 5.7-2.28 7.98 0 2.28 2.28 2.28 5.7 0 7.98-2.28 2.28-5.7 2.28-7.98 0z"/><path fill-rule="evenodd" clip-rule="evenodd" d="M12.869 33.954a1.25 1.25 0 00-1.768 0L7.565 37.49a1.25 1.25 0 101.767 1.768l3.537-3.535a1.25 1.25 0 000-1.768zM30.546 51.63a1.25 1.25 0 00-1.768 0l-3.535 3.536a1.25 1.25 0 101.768 1.768l3.535-3.536a1.25 1.25 0 000-1.768zM19.94 53.4a1.25 1.25 0 011.767 1.768l-8.467 8.466a1.25 1.25 0 11-1.768-1.768L19.94 53.4zm-8.232 0a1.25 1.25 0 00-1.768 0l-8.468 8.466a1.25 1.25 0 101.768 1.768l8.467-8.466a1.25 1.25 0 000-1.768h.001zM9.332 42.792A1.25 1.25 0 1111.1 44.56l-8.466 8.468A1.25 1.25 0 11.866 51.26l8.466-8.468z"/></g><defs><clipPath id="clip0_1330_195"><path fill="#fff" transform="translate(.5)" d="M0 0h63v64H0z"/></clipPath></defs></svg>