<svg width="64" height="66" fill="none" xmlns="http://www.w3.org/2000/svg"><g clip-path="url(#clip0_1330_207)" fill="#00FFA3"><path opacity=".6" d="M64 17.174V24.8a16.486 16.486 0 01-11.288 15.638l-7.737 2.55c-2.138.712-3.6 2.862-3.6 5.112 0 9.112-7.425 16.538-16.538 16.538h-4.55c-4.162 0-7.987-1.575-10.912-4.125C5.925 57.475 3.75 53.05 3.75 48.1V36.387H15v11.712a5.282 5.282 0 005.288 5.288h4.55a5.28 5.28 0 005.287-5.288c0-7.087 4.538-13.513 11.288-15.762l7.737-2.55a5.284 5.284 0 003.6-4.988v-7.625a5.282 5.282 0 00-5.288-5.287H20.288A5.28 5.28 0 0015 17.174v11.713H3.75V17.174c0-4.95 2.175-9.375 5.625-12.412C12.3 2.212 16.125.637 20.288.637h27.174C56.575.637 64 8.062 64 17.174z"/><path d="M47.462 4.387H20.288c-4.613 0-8.663 2.475-10.913 6.15-1.2 1.95-1.875 4.2-1.875 6.637v11.713h3.75V17.174c0-4.987 4.05-9.037 9.038-9.037h27.174c4.988 0 9.038 4.05 9.038 9.037V24.8a9.02 9.02 0 01-6.188 8.55l-7.7 2.513c-5.212 1.762-8.737 6.762-8.737 12.237 0 4.987-4.05 9.038-9.038 9.038h-4.55c-4.987 0-9.037-4.05-9.037-9.038V36.387H7.5v11.712c0 2.438.675 4.688 1.875 6.638 2.25 3.675 6.3 6.15 10.913 6.15h4.55c7.05 0 12.787-5.738 12.787-12.788 0-3.862 2.475-7.437 6.188-8.675l7.7-2.512c5.212-1.763 8.737-6.638 8.737-12.113v-7.625c0-7.05-5.738-12.787-12.788-12.787z"/><path d="M0 34.512h18.75v3.75H0v-3.75zm0-7.5h18.75v3.75H0v-3.75z"/></g><defs><clipPath id="clip0_1330_207"><path fill="#fff" transform="translate(0 .5)" d="M0 0h64v65H0z"/></clipPath></defs></svg>