<svg width="35" height="35" xmlns="http://www.w3.org/2000/svg"><path d="M0 32.88V2.12C.164 1.571.349 1.018.82.683c.397-.28.862-.458 1.3-.684h30.76c.664.185 1.28.472 1.655 1.08.198.321.315.69.465 1.04v30.76c-.191.664-.472 1.28-1.08 1.655-.321.198-.69.315-1.04.465H2.12c-.664-.191-1.28-.472-1.655-1.08-.192-.321-.315-.69-.465-1.04zm13.836-10.738c-1.764 1.319-3.671 1.838-5.872 1.66.184.117.28.185.383.247 2.604 1.49 5.393 1.88 8.312 1.265 5.565-1.176 8.757-6.235 8.825-10.972.007-.5.117-.834.534-1.135.56-.41 1.011-.957 1.428-1.593-.403.13-.731.253-1.066.349-.335.089-.684.15-1.025.226.717-.588 1.264-1.258 1.544-2.085-.717.26-1.435.512-2.146.772-.24.089-.403.027-.602-.144-1.196-1.052-2.584-1.333-4.074-.786-1.504.554-2.379 1.682-2.584 3.275-.061.45-.007.916-.007 1.394-3.315-.239-6.043-1.64-8.21-4.183-.533.936-.656 1.893-.444 2.898.219.998.786 1.777 1.593 2.406-.02.034-.041.062-.062.096-.547-.157-1.1-.314-1.66-.472.02.916.293 1.737.867 2.461.568.725 1.32 1.183 2.208 1.429-.007.034-.013.061-.013.096h-1.662c.67 1.702 1.88 2.611 3.733 2.796z"/></svg>