<svg width="35" height="35" xmlns="http://www.w3.org/2000/svg"><path d="M0 32.88V2.12C.164 1.571.349 1.018.82.683c.397-.28.862-.458 1.3-.684h30.76c.664.185 1.28.472 1.655 1.08.198.321.315.69.465 1.04v30.76c-.191.664-.472 1.28-1.08 1.655-.321.198-.69.315-1.04.465H2.12c-.664-.191-1.28-.472-1.655-1.08-.192-.321-.315-.69-.465-1.04zM17.056 9.763c0 .027 0 .054-.007.082-.123 0-.253-.007-.376 0-2.386.11-4.778.191-7.164.355-1.381.096-2.31.944-2.543 2.31-.205 1.183-.308 2.393-.37 3.596-.102 2.168-.06 4.328.377 6.46.246 1.217 1.032 1.983 2.262 2.167 1.156.171 2.331.26 3.5.315 4.102.178 8.197.178 12.291-.171 1.97-.17 2.851-.998 3.118-2.933a30.32 30.32 0 00.246-5.83c-.069-1.245-.185-2.503-.397-3.726-.198-1.142-.977-1.846-2.119-2.106a5.431 5.431 0 00-1.046-.15 953.245 953.245 0 00-7.772-.37z"/><path d="M15.347 14.232c1.9 1.094 3.753 2.167 5.667 3.268-1.914 1.1-3.774 2.174-5.667 3.267v-6.535z"/></svg>